<?xml version="1.0" standalone="no"?>
<!DOCTYPE svg PUBLIC "-//W3C//DTD SVG 20010904//EN"
 "http://www.w3.org/TR/2001/REC-SVG-20010904/DTD/svg10.dtd">
<svg version="1.0" xmlns="http://www.w3.org/2000/svg"
 width="124.000000pt" height="124.000000pt" viewBox="0 0 124.000000 124.000000"
 preserveAspectRatio="xMidYMid meet">
<metadata>
Created by potrace 1.14, written by Peter Selinger 2001-2017
</metadata>
<g transform="translate(0.000000,124.000000) scale(0.100000,-0.100000)"
fill="#000000" stroke="none">
<path d="M0 620 l0 -620 620 0 620 0 0 620 0 620 -620 0 -620 0 0 -620z m938
314 c43 -25 90 -104 63 -104 -5 0 -12 9 -16 20 -3 11 -27 38 -53 60 -47 40
-43 54 6 24z m214 -343 c-13 -60 -49 -114 -92 -136 -35 -18 -40 -19 -40 -2 1
6 15 21 32 32 57 37 73 68 75 153 2 110 3 113 20 57 13 -41 14 -60 5 -104z
m-643 91 c9 -17 6 -18 -52 -11 -34 5 -70 6 -79 3 -10 -3 -18 -3 -18 0 0 9 62
24 102 25 26 1 40 -4 47 -17z m316 10 l-20 -5 20 -8 c14 -5 7 -8 -27 -8 -26
-1 -59 -6 -75 -12 -28 -10 -28 -10 -8 9 11 11 23 18 28 15 4 -2 7 1 7 6 0 7
20 11 48 10 26 -1 38 -4 27 -7z m-416 -25 c-16 -13 -79 -48 -79 -44 0 7 63 47
74 47 5 0 7 -1 5 -3z m466 -7 c3 -6 -1 -7 -9 -4 -18 7 -21 14 -7 14 6 0 13 -4
16 -10z m55 -54 c0 -19 -56 -53 -102 -61 -44 -8 -108 10 -108 31 0 12 4 13 21
3 33 -17 121 -6 155 19 35 26 34 26 34 8z m66 -32 c20 -49 18 -128 -6 -174
-23 -46 -74 -87 -118 -96 -18 -4 -32 -13 -32 -20 0 -23 -73 -96 -115 -115 -50
-23 -142 -24 -193 -3 -58 24 -101 72 -118 132 -24 82 -13 134 42 192 39 42 88
69 100 57 3 -2 -14 -16 -36 -31 -45 -30 -85 -86 -95 -133 -23 -113 106 -237
229 -219 55 9 100 38 143 94 28 36 33 52 33 95 0 29 -7 65 -15 81 -17 31 -19
46 -7 46 17 0 36 -49 41 -108 l6 -63 47 30 c82 52 110 144 68 225 -19 38 -18
62 2 50 5 -4 16 -21 24 -40z m-717 -19 c-37 -84 -3 -182 78 -220 44 -21 55
-35 27 -35 -29 0 -94 43 -115 76 -10 17 -22 58 -25 91 -5 49 -3 66 15 101 29
56 45 44 20 -13z m231 -5 c-8 -5 -19 -10 -25 -10 -5 0 -3 5 5 10 8 5 20 10 25
10 6 0 3 -5 -5 -10z m-105 -90 c-3 -5 -28 -16 -56 -25 -37 -13 -54 -14 -62 -6
-13 13 -13 13 43 32 45 15 84 14 75 -1z m548 4 c33 -7 31 -31 -2 -26 -13 2
-41 12 -64 22 l-42 19 40 -4 c22 -3 53 -7 68 -11z m-358 -71 c-31 -53 -155
-120 -155 -84 0 6 10 11 21 11 28 0 78 31 112 70 34 37 43 39 22 3z m220 -83
c-3 -5 -11 -10 -16 -10 -6 0 -7 5 -4 10 3 6 11 10 16 10 6 0 7 -4 4 -10z"/>
</g>
</svg>
